<?xml version="1.0" encoding="UTF-8"?>
<svg width="200px" height="200px" viewBox="0 0 200 200" version="1.1" xmlns="http://www.w3.org/2000/svg" xmlns:xlink="http://www.w3.org/1999/xlink">
    <title>512x512@1x</title>
    <g id="512x512" stroke="none" stroke-width="1" fill="none" fill-rule="evenodd">
        <g id="bie" transform="translate(5.000000, 82.100000)" fill="#030911" fill-rule="nonzero">
            <path d="M65.1,34 C66.1,34 66.9833333,33.6333333 67.75,32.9 C68.5166667,32.1666667 68.9,31.3 68.9,30.3 C68.9,29.2333333 68.5166667,28.35 67.75,27.65 C66.9833333,26.95 66.1,26.6 65.1,26.6 L9.6,26.6 L9.6,31.5 C9.6,32.1666667 9.88333333,32.75 10.45,33.25 C11.0166667,33.75 11.7666667,34 12.7,34 L65.1,34 Z M0,4.8 C0,3.46666667 0.466666667,2.33333333 1.4,1.4 C2.33333333,0.466666667 3.46666667,0 4.8,0 L64.7,0 C66.5666667,0 68.3166667,0.35 69.95,1.05 C71.5833333,1.75 73.0166667,2.7 74.25,3.9 C75.4833333,5.1 76.45,6.51666667 77.15,8.15 C77.85,9.78333333 78.2,11.5333333 78.2,13.4 C78.2,15.0666667 77.9166667,16.6166667 77.35,18.05 C76.7833333,19.4833333 76.0333333,20.7666667 75.1,21.9 C76.0333333,23.0333333 76.7833333,24.3166667 77.35,25.75 C77.9166667,27.1833333 78.2,28.7 78.2,30.3 C78.2,32.1666667 77.85,33.9 77.15,35.5 C76.45,37.1 75.4833333,38.5 74.25,39.7 C73.0166667,40.9 71.5833333,41.85 69.95,42.55 C68.3166667,43.25 66.5666667,43.6 64.7,43.6 L12.2,43.6 C10.7333333,43.6 9.26666667,43.2833333 7.8,42.65 C6.33333333,42.0166667 5.03333333,41.1333333 3.9,40 C2.76666667,38.8666667 1.83333333,37.5 1.1,35.9 C0.366666667,34.3 0,32.5 0,30.5 L0,21.5 C0,19.7 0.516666667,18.5 1.55,17.9 C2.58333333,17.3 4.2,17 6.4,17 L65.2,17 C66.2,17 67.0666667,16.6666667 67.8,16 C68.5333333,15.3333333 68.9,14.4666667 68.9,13.4 C68.9,12.4 68.5166667,11.5166667 67.75,10.75 C66.9833333,9.98333333 66.1,9.6 65.1,9.6 L4.8,9.6 C3.46666667,9.6 2.33333333,9.13333333 1.4,8.2 C0.466666667,7.26666667 0,6.13333333 0,4.8 Z" id="Shape"></path>
            <path d="M97.79875,38.8 C97.79875,40.1333333 97.3320833,41.2666667 96.39875,42.2 C95.4654167,43.1333333 94.3320833,43.6 92.99875,43.6 C91.6654167,43.6 90.5320833,43.1333333 89.59875,42.2 C88.6654167,41.2666667 88.19875,40.1333333 88.19875,38.8 L88.19875,4.8 C88.19875,3.46666667 88.6654167,2.33333333 89.59875,1.4 C90.5320833,0.466666667 91.6654167,0 92.99875,0 C94.3320833,0 95.4654167,0.466666667 96.39875,1.4 C97.3320833,2.33333333 97.79875,3.46666667 97.79875,4.8 L97.79875,38.8 Z" id="Path"></path>
            <path d="M107.7975,4.8 C107.7975,3.46666667 108.264167,2.33333333 109.1975,1.4 C110.130833,0.466666667 111.264167,0 112.5975,0 L183.4975,0 C184.830833,0 185.964167,0.466666667 186.8975,1.4 C187.830833,2.33333333 188.2975,3.46666667 188.2975,4.8 C188.2975,6.13333333 187.830833,7.26666667 186.8975,8.2 C185.964167,9.13333333 184.830833,9.6 183.4975,9.6 L112.5975,9.6 C111.264167,9.6 110.130833,9.13333333 109.1975,8.2 C108.264167,7.26666667 107.7975,6.13333333 107.7975,4.8 Z M119.9975,43.6 C118.530833,43.6 117.064167,43.2833333 115.5975,42.65 C114.130833,42.0166667 112.830833,41.1333333 111.6975,40 C110.564167,38.8666667 109.630833,37.5 108.8975,35.9 C108.164167,34.3 107.7975,32.5 107.7975,30.5 L107.7975,21.5 C107.7975,19.7 108.314167,18.5 109.3475,17.9 C110.380833,17.3 111.9975,17 114.1975,17 L181.2975,17 C182.630833,17 183.764167,17.4666667 184.6975,18.4 C185.630833,19.3333333 186.0975,20.4666667 186.0975,21.8 C186.0975,23.1333333 185.630833,24.2666667 184.6975,25.2 C183.764167,26.1333333 182.630833,26.6 181.2975,26.6 L117.3975,26.6 L117.3975,31.5 C117.3975,32.1666667 117.680833,32.75 118.2475,33.25 C118.814167,33.75 119.564167,34 120.4975,34 L183.4975,34 C184.830833,34 185.964167,34.4666667 186.8975,35.4 C187.830833,36.3333333 188.2975,37.4666667 188.2975,38.8 C188.2975,40.1333333 187.830833,41.2666667 186.8975,42.2 C185.964167,43.1333333 184.830833,43.6 183.4975,43.6 L119.9975,43.6 Z" id="Shape"></path>
        </g>
    </g>
</svg>