<?xml version="1.0" encoding="UTF-8"?>
<svg width="153px" height="172px" viewBox="0 0 153 172" version="1.1" xmlns="http://www.w3.org/2000/svg" xmlns:xlink="http://www.w3.org/1999/xlink">
    <!-- Generator: Sketch 63.1 (92452) - https://sketch.com -->
    <title>Group</title>
    <desc>Created with Sketch.</desc>
    <g id="Page-1" stroke="none" stroke-width="1" fill="none" fill-rule="evenodd">
        <g id="Artboard" transform="translate(-18.000000, -14.000000)" fill="#000000">
            <g id="Group" transform="translate(18.000000, 14.000000)">
                <path d="M10.7859355,0.000349025787 C31.1765605,0.000349025787 31.1765605,0.000349025787 41.1960917,1.69956778 C46.144084,2.53870096 46.144084,2.53870096 50.5776572,4.27806741 L131.808594,4.27860775 L131.808594,32.1301702 L76.123663,32.1302323 C77.5828105,37.3864485 77.5828105,37.3864485 77.5828105,43.2425365 C77.5828105,55.312849 77.5828105,55.312849 71.0789042,65.390974 C69.9880682,67.0812786 69.9880682,67.0812786 68.7670208,68.629834 L125.631836,68.6291937 L125.631836,96.3684515 L77.789,96.368 L77.9456708,96.5748668 C86.0203105,107.433263 86.0203105,107.433263 86.0203105,121.992537 C86.0203105,131.8116 86.0203105,131.8116 82.1946026,141.17816 L134.953125,141.178022 L134.953125,168.91728 L51.6280722,168.918253 C47.3002603,170.088416 47.3002603,170.088416 42.4265605,170.625349 C33.8532295,171.552196 33.8532295,171.552196 1.34118894,171.791807 L0.590622977,171.797224 L3.94493327e-11,171.797 L3.94493327e-11,142.851 L9.55341142,142.851598 L10.1877358,142.850657 C27.8346963,142.815543 27.8346963,142.815543 32.699998,141.797224 C40.434373,140.390974 40.434373,140.390974 45.2976542,134.941755 C50.1609355,129.492537 50.1609355,129.492537 50.1609355,120.351912 C50.1609355,112.617537 50.1609355,112.617537 46.4109355,107.226912 C42.6609355,101.836287 42.6609355,101.836287 35.5710917,99.375349 C28.6977189,96.9895502 28.6977189,96.9895502 6.23943975,96.9167057 L5.53381362,96.914994 L3.94493327e-11,96.914 L3.94493327e-11,68.32 L0.827924616,68.3200518 C19.6491395,68.3020652 19.6491395,68.3020652 24.5684842,67.7534728 L24.731248,67.734724 C33.637498,66.6800365 33.637498,66.6800365 38.7351542,61.5823803 C43.8328105,56.484724 43.8328105,56.484724 43.8328105,48.1644115 C43.8328105,40.1956615 43.8328105,40.1956615 39.4382792,35.2151928 C35.043748,30.234724 35.043748,30.234724 26.371873,29.1800365 C21.570254,28.634398 21.570254,28.634398 0.000965650587,28.5968707 L3.94493327e-11,0 L10.7859355,0.000349025787 Z" id="Combined-Shape"></path>
                <circle id="Oval" cx="147" cy="162" r="6"></circle>
            </g>
        </g>
    </g>
</svg>